<svg width="100" height="100" viewBox="0 0 100 100" fill="none" xmlns="http://www.w3.org/2000/svg">
  <circle cx="50" cy="50" r="48" fill="white" />

  <rect x="20" y="25" width="60" height="65" rx="4" fill="#333333"/>
  <rect x="24" y="29" width="52" height="57" rx="2" fill="white"/>
  
  <rect x="40" y="20" width="20" height="8" rx="2" fill="#BDBDBD" stroke="#333" stroke-width="1.5"/>

  <g stroke="#E0E0E0" stroke-width="2">
    <line x1="30" y1="42" x2="70" y2="42"/>
    <line x1="30" y1="52" x2="70" y2="52"/>
    <line x1="30" y1="62" x2="70" y2="62"/>
    <line x1="30" y1="72" x2="70" y2="72"/>
  </g>

  <path d="M30 42 Q 35 38, 40 42 T 50 42" stroke="#555" stroke-width="2" fill="none" stroke-linecap="round"/>

  <g transform="translate(50, 42) rotate(-30)">
    <rect x="-5" y="-50" width="10" height="35" fill="#E6A119" stroke="#333" stroke-width="1"/>
    <rect x="-5" y="-55" width="10" height="5" fill="#9E9E9E"/>
    <rect x="-5" y="-63" width="10" height="8" rx="1" fill="#FF8A80" stroke="#333" stroke-width="1"/>
    <path d="M-5 -15 L0 0 L5 -15 Z" fill="#FFD180" stroke="#333" stroke-width="1"/>
    <path d="M-2 -6 L0 0 L2 -6 Z" fill="#333333"/>
  </g>
</svg>
